<svg width="96" height="33" fill="none" xmlns="http://www.w3.org/2000/svg"><path fill-rule="evenodd" clip-rule="evenodd" d="M19.3 16.08h-4.2l1.4-1.38H24l-1.1 1.1a.9.9 0 0 0-.34.7v6.02c-3.5.97-6.53 1.48-9.94 1.48C5.6 24 0 19.42 0 11.83 0 6.49 4.2 0 13.37 0c4.18 0 7.1 1.28 9.13 2.64l-3.2 3.15V3.9a9.4 9.4 0 0 0-6.87-2.62c-5.17 0-8.88 3.96-8.88 9.62 0 5.76 4.1 11.67 11.07 11.67 1.72 0 3.37-.23 4.68-.65v-5.83ZM33.41 8C28.21 8 25 11.69 25 15.6 25 19 27.6 23 32.85 23 37.9 23 41 19.3 41 15.32A7.43 7.43 0 0 0 33.41 8Zm-.86 1.08c3.66 0 5.3 4.63 5.3 7.94 0 4.92-3.8 5.02-4.26 5.02-1.73 0-2.95-1.02-3.86-2.36a11.58 11.58 0 0 1-1.58-5.77c0-2.23.75-3.32 1.93-4.12.97-.6 1.88-.71 2.47-.71ZM67.42 8c-4.39 0-6.76 2.9-6.76 6.13 0 2.46 1.7 5.24 5.18 5.24h.88s-.24.6-.24 1.2c0 .86.3 1.35.93 2.1-6 .38-8.41 2.9-8.41 5.62 0 2.37 2.18 4.71 6.76 4.71C71.2 33 74 29.86 74 26.77c0-2.17-1.04-3.36-3.67-5.42-.77-.62-.92-1.02-.92-1.5 0-.65.37-1.1.52-1.27.17-.19.41-.39.6-.54l.25-.2c.88-.79 2.13-1.94 2.13-4.25 0-1.58-.63-2.94-2.07-4.21h1.75L73.91 8h-6.5ZM66.2 9.03c.8 0 1.46.3 2.16.9.78.73 2.02 2.7 2.02 5.13 0 2.63-1.96 3.35-3.02 3.35-.51 0-1.13-.16-1.66-.53-1.17-.79-2.32-2.9-2.32-5.4 0-2.25 1.28-3.45 2.82-3.45Zm2.3 14.66s-.23-.03-.57-.03c-4.5.07-6.14 1.84-6.14 3.9 0 2.48 2.4 4 5.53 4 2.85 0 4.61-1.55 4.61-3.53 0-1.44-.8-2.25-2.08-3.31-.55-.44-1.34-1.03-1.34-1.03ZM81.04 23h-6.37l1.17-1.15c.2-.2.28-.4.28-.67V1.4H74L75.41 0h5.43L79.7 1.14a.88.88 0 0 0-.3.7v19.08c0 .4.3.83.78.9l1.83.22-.97.96Zm.97-7.8c0-4.62 3.82-7.2 7.42-7.2 3.82 0 5.48 1.99 6.07 3.96l-10.2 3.87c.97 3.6 3.76 5.56 6.64 5.56 1.52 0 2.67-.44 4.07-1.1a7.42 7.42 0 0 1-2.82 2.13c-.98.43-2.04.58-3.31.58-5.13 0-7.87-3.98-7.87-7.8Zm10.08-3.48c0-1.17-1.4-2.66-3.33-2.66-1.27 0-3.86.9-3.86 4.26 0 .8.17 1.54.17 1.54l6.27-2.38c.5-.18.75-.38.75-.76ZM51.41 8C46.21 8 43 11.69 43 15.6 43 19 45.6 23 50.85 23 55.9 23 59 19.3 59 15.32A7.43 7.43 0 0 0 51.41 8Zm-.86 1.08c3.66 0 5.3 4.63 5.3 7.94 0 4.92-3.8 5.02-4.26 5.02-1.73 0-2.95-1.02-3.86-2.36a11.58 11.58 0 0 1-1.58-5.77c0-2.23.75-3.32 1.93-4.12.97-.6 1.88-.71 2.47-.71Z" fill="#fff"/></svg>