<svg width="140" height="27" fill="none" xmlns="http://www.w3.org/2000/svg"><path fill-rule="evenodd" clip-rule="evenodd" d="M39.46 0h-16.6l-.76 2.02c6.58.32 11.82 5.3 11.82 11.41 0 5.68-4.53 10.38-10.45 11.27l-.71 2.17h16.7c.93 0 1.83-.37 2.5-1.04a3.62 3.62 0 0 0 1.03-2.54V3.57A3.54 3.54 0 0 0 39.46 0ZM9.06 13.43c0 5 3.51 9.4 8.4 11.01l-.85 2.43H3.53A3.57 3.57 0 0 1 0 23.27V3.6C0 1.6 1.58 0 3.53 0h13.5l-.84 2.4C12.1 4.6 9.05 9.04 9.05 13.43Zm122.5 2.96h-7.72V27h7.67c2.77 0 2.96-2.74 2.96-4.23v-3.11c0-1.87-.94-3.26-2.92-3.26Zm.51 6.66v-3.02c.05-.67-.42-1.43-1.13-1.43h-4.7v6.18h4.51c.85 0 1.32-.82 1.32-1.73Zm-11.54-.19c.56-.48.94-1.2.94-3.12 0-2.16-1.46-3.37-3.16-3.37h-6.94V27h2.36v-3.13h4.06c.94 0 1.41.77 1.41 1.2V27h2.27v-2.21c0-.63-.19-1.54-.94-1.93Zm-6.8-1.2h4.34c.9 0 1.13-1.1 1.13-1.63 0-.53-.23-1.44-1.41-1.44h-4.06v3.07Zm-8.92-5.27h-3.1l-4.19 9.1v1.49h1.88l.85-1.92h6.01l.86 1.92h2.44l-4.75-10.59Zm-1.55 1.97-2.02 4.5h4.03l-2.01-4.5Zm-16.65 8.63v-10.6h2.4v3.98h1.04l4.1-3.99h3.2l-5.04 5 4.2 4.22v1.39h-1.8l-4.47-4.42h-1.23V27h-2.4Zm-12.63-2.5v-5.6c0-1.2 1.27-2.49 2.4-2.49h5.78c1.5.05 2.4 1.63 2.4 2.54v.9h-2.4c-.05-.47-.47-1.2-.85-1.2h-4.13c-.94 0-.8.97-.8.97v4.2c0 .77.47.96.75.96h4.09c.9 0 .99-.76.99-1.24h2.35v.96c0 1.57-1.08 2.48-2.4 2.48h-5.73c-1.79 0-2.45-1.38-2.45-2.48Zm-5.82-8.12h-3.11L60.19 27h2.55l.85-1.92h6.03l.86 1.92h2.45l-4.77-10.63Zm-1.55 1.97-2.03 4.52h4l-1.97-4.52Zm-9.12-1.95h-7.58v10.6h2.4V24h5.18c1.41 0 3.02-.81 3.02-3.79 0-3.02-1.75-3.83-3.02-3.83Zm-5.18 5.42h4.62c1.03 0 1.03-1.1 1.03-1.59 0-.47 0-1.63-1.17-1.63H52.3v3.22ZM49.91.17v10.6h2.4V6.55h6.27v4.22h2.4V.17h-2.4v4.17H52.3V.17h-2.4Zm15.18 0h8.01v2.2h-7.25v1.97h6.03v2.21h-6.03v2.02h7.25v2.2h-8.15c-.94 0-1.5-.76-1.5-1.39V1.75c0-.96.56-1.58 1.64-1.58Zm27.36 0v9.01c0 .82.6 1.59 1.7 1.59h7.05v-2.2h-6.35V.16h-2.4Zm27.33 2.2v8.4h-2.4v-8.4h-3.47V.17h9.38v2.2h-3.5Zm11.12 8.41V2.37h3.51V.16h-9.39v2.21h3.47v8.41h2.4ZM104.15.18h8v2.2h-7.25v1.96h6.03v2.21h-6.03v2.01h7.25v2.21h-8.14c-.95 0-1.51-.77-1.51-1.39V1.75c0-.96.56-1.58 1.65-1.58Zm-18.26 10.6c-.71 0-1.4-1.07-1.54-1.6l-1.77-5.56-2.31 7.17h-1.46c-.71 0-1.33-1.1-1.47-1.64l-2.88-9h2.41l2.22 7.27L81.45.2h2.27l2.36 7.22L88.29.16h2.41l-3.4 10.63H85.9ZM137.66.1c.63 0 1.22.24 1.66.7.45.46.68 1.02.68 1.67 0 .64-.24 1.25-.68 1.69-.46.46-1.01.7-1.66.7-.64 0-1.2-.23-1.65-.7a2.33 2.33 0 0 1-.67-1.69c-.01-.63.24-1.23.68-1.67.45-.46 1-.7 1.64-.7Zm1.43 3.83c-.38.4-.9.61-1.43.6a1.9 1.9 0 0 1-1.42-.6c-.38-.39-.59-.91-.58-1.46a2 2 0 0 1 .59-1.44c.39-.4.86-.6 1.41-.6.56 0 1.03.2 1.43.6a2 2 0 0 1 .58 1.44c0 .57-.2 1.06-.58 1.46ZM18.33 0 12 18h2.67l3.1-8.66h.84c.56 0 .56.41.47.88L16.3 18h2.77s2.39-6.58 2.8-7.97c.43-1.39-.41-2.08-2.05-2.08h-1.6L21.04 0h-2.71Zm6.13 7.9h4.37c1.32 0 2.68.7 1.98 2.6l-2.02 5.68C28.4 17.25 28.08 18 26.1 18h-2.47l-2.8 8h-2.67l6.3-18.1Zm3.62 2.1s-1.98 5.53-2.02 5.81c-.05.28-.28.8-.75.8h-1.2l2.56-7.31h1.18c.42 0 .37.32.23.7Z" fill="#fff"/></svg>