<svg width="145" height="31" fill="none" xmlns="http://www.w3.org/2000/svg"><path fill-rule="evenodd" clip-rule="evenodd" d="M15 15H0V0h15v15Zm130-.94v-2.52h-3.14V7.62l-.1.03-2.96.9-.06.02v2.97h-4.66V9.89c0-.77.17-1.36.51-1.76.34-.39.83-.58 1.44-.58.45 0 .9.1 1.37.3l.12.06V5.25l-.06-.02a5.34 5.34 0 0 0-1.75-.23c-.91 0-1.75.2-2.47.6-.73.39-1.3.95-1.7 1.67-.4.71-.6 1.54-.6 2.45v1.82h-2.2v2.52h2.2v10.62h3.14V14.06h4.66v6.75c0 2.78 1.32 4.19 3.91 4.19a6.45 6.45 0 0 0 2.3-.45l.05-.03v-2.54l-.13.08c-.17.11-.38.2-.63.28-.25.07-.46.1-.62.1-.6 0-1.06-.16-1.34-.49-.28-.32-.42-.89-.42-1.68v-6.2H145Zm-23.27 8.38a3.34 3.34 0 0 1-2.67-1.12 4.74 4.74 0 0 1-.96-3.16c0-1.4.32-2.48.96-3.24a3.29 3.29 0 0 1 2.65-1.14c1.09 0 1.95.37 2.58 1.09.62.72.94 1.8.94 3.22 0 1.42-.3 2.52-.89 3.25-.58.73-1.46 1.1-2.6 1.1Zm-5-9.33c1.24-1.25 2.97-1.89 5.14-1.89 2.05 0 3.68.61 4.83 1.8 1.16 1.2 1.74 2.87 1.74 4.96 0 2.12-.62 3.84-1.85 5.1-1.23 1.28-2.93 1.92-5.04 1.92a6.59 6.59 0 0 1-4.86-1.82c-1.2-1.2-1.81-2.86-1.81-4.92 0-2.16.62-3.9 1.86-5.15Zm-6.92-1.89a5.7 5.7 0 0 0-3.64 1.12 3.57 3.57 0 0 0-1.41 2.92c0 .62.1 1.16.3 1.63.2.47.52.88.94 1.22.42.34 1.06.7 1.91 1.07.72.29 1.25.54 1.59.73.33.2.56.39.7.57.13.19.2.44.2.75 0 .88-.67 1.31-2.04 1.31a6.47 6.47 0 0 1-3.48-1.2l-.12-.1v3.02l.04.02a8.98 8.98 0 0 0 3.45.72c1.6 0 2.9-.38 3.84-1.13a3.64 3.64 0 0 0 1.43-2.98c0-.89-.26-1.65-.77-2.26a6.6 6.6 0 0 0-2.61-1.66c-.98-.39-1.6-.71-1.87-.96a1.34 1.34 0 0 1-.37-1.02c0-.38.15-.68.47-.93.33-.25.78-.38 1.34-.38a5.5 5.5 0 0 1 2.98.89l.13.08V11.8l-.05-.03a8.64 8.64 0 0 0-2.96-.55ZM93.9 21.32a3.34 3.34 0 0 0 2.67 1.12c1.15 0 2.03-.37 2.61-1.1.59-.73.89-1.83.89-3.25 0-1.41-.32-2.5-.94-3.22a3.24 3.24 0 0 0-2.58-1.09c-1.12 0-2.01.39-2.65 1.14a4.92 4.92 0 0 0-.96 3.24c0 1.35.32 2.42.96 3.16Zm2.81-10.1c-2.17 0-3.9.64-5.13 1.9-1.23 1.24-1.86 2.98-1.86 5.14 0 2.06.61 3.72 1.81 4.92A6.59 6.59 0 0 0 96.4 25c2.1 0 3.8-.64 5.03-1.91a7.04 7.04 0 0 0 1.86-5.1c0-2.1-.59-3.76-1.75-4.96-1.15-1.2-2.78-1.8-4.83-1.8Zm-11.76.32v2.28h.04c.29-.74.66-1.34 1.19-1.77.6-.49 1.3-.74 2.08-.74.51 0 .92.06 1.21.19l.05.02v3.11l-.13-.09a3.66 3.66 0 0 0-1.66-.43c-.82 0-1.5.36-2 1.06-.52.7-.78 1.65-.78 2.79v6.72h-3.1V11.54h3.1Zm-8.66-.32c-1.42 0-2.7.3-3.77.9a6.1 6.1 0 0 0-2.5 2.56 8.1 8.1 0 0 0-.02 7.16c.55 1 1.34 1.8 2.33 2.34.98.54 2.12.82 3.39.82 1.47 0 2.73-.3 3.74-.87l.04-.03v-2.83l-.13.1a5.84 5.84 0 0 1-3 1.07c-1.22 0-2.2-.38-2.9-1.13a4.38 4.38 0 0 1-1.08-3.12c0-1.34.38-2.41 1.12-3.21a3.8 3.8 0 0 1 2.9-1.2 5 5 0 0 1 2.96 1.03l.13.09v-2.98l-.04-.03c-.35-.2-.84-.36-1.43-.48a8.6 8.6 0 0 0-1.74-.19Zm-12.36.32h3.1v13.14h-3.1V11.54Zm1.58-5.6c-.5 0-.95.17-1.32.52a1.7 1.7 0 0 0-.55 1.29c0 .5.18.93.55 1.26.36.33.8.5 1.32.5s.97-.17 1.34-.5c.37-.33.55-.76.55-1.26s-.18-.93-.54-1.28a1.86 1.86 0 0 0-1.35-.53Zm-7.74 18.74V10.57h-.1l-5.62 14.11h-2.25l-5.71-14.11h-.1v14.11H41V6.34h4.56l5.41 13.63 5.57-13.63h4.39v18.34h-3.17ZM16 15h15V0H16v15Zm-1 16H0V16h15v15Zm1 0h15V16H16v15Z" fill="#fff"/></svg>