<svg width="137" height="26" fill="none" xmlns="http://www.w3.org/2000/svg"><path fill-rule="evenodd" clip-rule="evenodd" d="M14.54 0v3.5l.69-.04c8.86-.3 14.64 7.32 14.64 7.32s-6.63 8.13-13.54 8.13c-.6 0-1.19-.06-1.77-.16v2.17c.48.06.99.1 1.47.1 6.43 0 11.08-3.31 15.6-7.22.33.28 1.14.73 1.98 1.2 1.02.56 2.1 1.16 2.45 1.5-4.28 3.63-14.26 6.53-19.91 6.53-.55 0-1.06-.03-1.58-.08V26H39V0H14.54Zm0 7.76V5.4h.02c.22-.01.44-.03.67-.03 6.37-.2 10.55 5.53 10.55 5.53s-4.5 6.3-9.34 6.3c-.65 0-1.28-.1-1.89-.3V9.8c2.34.28 2.93 1.27 4.22 3.48l.25.42 3.31-2.8s-2.42-3.2-6.5-3.2c-.43-.02-.86.01-1.29.06Zm0 0v2.02h-.01c-2.49-.3-4.44 2.04-4.44 2.04s1.1 3.95 4.45 5.1v1.85c-5.94-1.07-7.6-7.31-7.6-7.31s2.86-3.18 7.6-3.7Zm.02-2.35h-.02C7.5 5.97 4 11.2 4 11.2s2.68 8.74 10.55 9.72v2.03C3.82 21.93 0 10.79 0 10.79S6.75 4.14 14.55 3.5v1.91ZM46 5v16.99h4.85V8.79l3.78.02c1.25 0 2.11.3 2.7.94.77.8 1.07 2.11 1.07 4.48V22h4.71V12.6c0-6.7-4.29-7.61-8.48-7.61H46Zm37.83.03V22h4.81V5.03h-4.8ZM91.6 22V5.03h6.74c3.84 0 6.41.46 8.17 2.83 1 1.33 1.56 3.45 1.56 5.84 0 2.6-.66 5-1.7 6.07-1.46 1.54-2.82 2.23-6.98 2.23h-7.8Zm4.76-13.29h2.07c3 0 4.94 1.34 4.94 4.82 0 3.48-1.94 4.83-4.94 4.83h-2.07V8.71ZM72.9 18.48 76.9 5.03h4.91L76.27 22h-6.94L63.85 5.03h5.2l3.84 13.45ZM110.3 22h4.81V5.03h-4.8V22Zm6.78-.01 6.71-16.96h6.43L137 21.97h-5.16l-1-2.99h-7.95l-1.07 3h-4.73Zm9.83-13.87 2.92 7.94h-5.92l3-7.94Z" fill="#fff"/></svg>