<svg width="131" height="17" fill="none" xmlns="http://www.w3.org/2000/svg"><path fill-rule="evenodd" clip-rule="evenodd" d="M56.55 11.06h8.66l-4.58-7.35L52.23 17h-3.82L58.63 1.03a2.42 2.42 0 0 1 2-1.03c.8 0 1.54.38 1.97 1l10.26 16h-3.83l-1.8-2.97h-8.76l-1.92-2.97Zm39.72 2.97V.16h-3.25V15.4c0 .41.16.82.47 1.13.31.3.73.48 1.19.48h14.8l1.9-2.97H96.28ZM48.3 5.86a5.7 5.7 0 0 1-5.7 5.68H41.1L47.63 17h-4.71l-9.69-8.43 9.15.02c1.5 0 2.72-1.23 2.72-2.73s-1.21-2.73-2.72-2.73H31.64V17H28.4V.16h14.2a5.7 5.7 0 0 1 5.7 5.7ZM8.44 17a8.42 8.42 0 1 1 0-16.84h9.8a8.42 8.42 0 1 1 0 16.84h-9.8Zm15.04-8.41a5.45 5.45 0 0 1-5.46 5.44H8.65a5.45 5.45 0 1 1 0-10.9h9.37a5.46 5.46 0 0 1 5.46 5.46ZM79.63 17a8.43 8.43 0 1 1 0-16.84h11.64l-1.9 2.97h-9.53a5.45 5.45 0 1 0 0 10.9h11.7L89.63 17h-10Zm34.42-6.93a5.45 5.45 0 0 0 5.25 3.96H131L129.09 17h-10a8.43 8.43 0 1 1 0-16.84h11.65l-1.92 2.97h-9.52c-2.49 0-4.6 1.68-5.25 3.97h15.78l-1.91 2.97h-13.87Z" fill="#fff"/></svg>