<svg width="129" height="17" fill="none" xmlns="http://www.w3.org/2000/svg"><path fill-rule="evenodd" clip-rule="evenodd" d="M3.35 3.43A4.67 4.67 0 0 1 0 .05L21 0v.05a4.75 4.75 0 0 1-3.35 3.38H12.4l-.28.1V17H8.87V3.52l-.28-.1H3.35Zm29.08-.01h12.52A4.52 4.52 0 0 0 48.33 0H29a4.73 4.73 0 0 0 3.43 3.42Zm93.19 0H113.1A4.74 4.74 0 0 1 109.7 0H129c-.37 1.5-1.62 3.1-3.38 3.42ZM110.22 17V6.74h18.36V17h-3.24v-6.84h-11.87V17h-3.25Zm-9.87 0a4.83 4.83 0 0 0 2.87-3.33h-14.6V.05h-3.3V17h15.03ZM72.58 3.37h-11.6l.06 3.37h15.02V17H56.82a6.65 6.65 0 0 1 4.22-3.42H72.8v-3.51H57.8V.05h18.36c-.37 1.45-1.8 2.8-3.57 3.32Zm-27.63 6.75H32.43A4.73 4.73 0 0 1 29 6.7h19.33a4.52 4.52 0 0 1-3.38 3.42ZM32.43 17h12.52a4.52 4.52 0 0 0 3.38-3.42H29A4.65 4.65 0 0 0 32.43 17Z" fill="#fff"/></svg>